<svg xmlns="http://www.w3.org/2000/svg" viewBox="0 0 100 100">
  <rect width="100" height="100" rx="22" fill="#18120f"/>
  <g fill="#5b8a55">
    <path d="M50 50 A18 18 0 0 1 50 14 A9 9 0 0 0 50 32 A9 9 0 0 1 50 50 Z"/>
    <path d="M50 50 A18 18 0 0 1 50 14 A9 9 0 0 0 50 32 A9 9 0 0 1 50 50 Z" transform="rotate(90 50 50)"/>
    <path d="M50 50 A18 18 0 0 1 50 14 A9 9 0 0 0 50 32 A9 9 0 0 1 50 50 Z" transform="rotate(180 50 50)"/>
    <path d="M50 50 A18 18 0 0 1 50 14 A9 9 0 0 0 50 32 A9 9 0 0 1 50 50 Z" transform="rotate(270 50 50)"/>
  </g>
</svg>
